# xmcd CD database file
#
# Track frame offsets:
#	150
#	12649
#	24544
#	36173
#	51285
#	66766
#	80680
#	94992
#	111587
#	127032
#	138095
#	157629
#	175218
#	192820
#
# Disc length: 2575 seconds
#
# Revision: 0
# Processed by: cddbd v1.5.2PL0 Copyright (c) Steve Scherf et al.
# Submitted via: CDex 1.70beta2
#
DISCID=be0a0d0e
DTITLE=Herrn Stumpfes Zieh and Zupf Kapelle - sehr sogar
DYEAR=2017
DGENRE=Country
TTITLE0=Muggagittermo
TTITLE1=Heut nemme
TTITLE2=Atemlos
TTITLE3=Fahr mr do mol no
TTITLE4=Dickerle
TTITLE5=Dei Schneggle
TTITLE6=Vergugg mi net
TTITLE7=Bäsles Hochzeit
TTITLE8=Liebchen willst Du mir gestehen
TTITLE9=Rechts und Links
TTITLE10=Komm mit
TTITLE11=Er goht heut fremd
TTITLE12=Komma senn mir als Fremde
TTITLE13=Hidden track
EXTD=YEAR: 2017
EXTT0=
EXTT1=
EXTT2=
EXTT3=
EXTT4=
EXTT5=
EXTT6=
EXTT7=
EXTT8=
EXTT9=
EXTT10=
EXTT11=
EXTT12=
EXTT13=
PLAYORDER=
